<svg xmlns="http://www.w3.org/2000/svg" width="100%" height="100%" xmlns:xlink="http://www.w3.org/1999/xlink" joint-selector="svg" id="v-14068" viewBox="58 45.5 641 441.5"><defs joint-selector="defs"><filter id="dropShadowv-2-1096745468" filterUnits="objectBoundingBox" x="-1" y="-1" width="3" height="3"><feDropShadow stdDeviation="0" dx="3" dy="6" flood-color="grey" flood-opacity="1"/></filter><marker id="v-2-683989481" orient="auto" overflow="visible" markerUnits="userSpaceOnUse"><circle id="v-15" stroke="#586D8C" fill="white" transform="rotate(180)" d="" strokeWidth="2" r="5" cx="5"/></marker><filter id="dropShadowv-2-1352970975" filterUnits="objectBoundingBox" x="-1" y="-1" width="3" height="3"><feDropShadow stdDeviation="0" dx="0" dy="0" flood-color="grey" flood-opacity="1"/></filter><marker id="v-2475244396" orient="auto" overflow="visible" markerUnits="userSpaceOnUse"><path id="v-100" stroke="#586D8C" fill="white" transform="rotate(180)" d="M0,0 L23,8 L12,0 L23,-8 L0,0" strokeWidth="2"/></marker><marker id="v-2-848240405" orient="auto" overflow="visible" markerUnits="userSpaceOnUse"><circle id="v-245" stroke="#586D8C" fill="#586D8C" transform="rotate(180)" d="" r="5" cx="5"/></marker><marker id="v-2588103847" orient="auto" overflow="visible" markerUnits="userSpaceOnUse"><path id="v-251" stroke="#586D8C" fill="white" strokeWidth="2" d="M0,0 L23,8 L12,0 L23,-8 L0,0"/></marker><marker id="v-2-1447209640" orient="auto" overflow="visible" markerUnits="userSpaceOnUse"><path id="v-1497" stroke="none" fill="#586D8C" transform="rotate(180)" d=""/></marker><marker id="v-2-1629497611" orient="auto" overflow="visible" markerUnits="userSpaceOnUse"><polyline id="v-2540" stroke="rgba(88,109,140,0)" fill="none" transform="rotate(180)" d="" stroke-width="2" points="0,0 -2,0"/></marker><marker id="v-2937177351" orient="auto" overflow="visible" markerUnits="userSpaceOnUse"><polyline id="v-8728" stroke="#586D8C" fill="none" transform="rotate(180)" d="" strokeWidth="2" points="0,0 20,-10 0,0 20,10"/></marker></defs><g joint-selector="layers" class="joint-layers"><g joint-selector="back" class="joint-back-layer"/><g joint-selector="cells" class="joint-cells-layer joint-viewport"><g model-id="533caa86-48e6-4e82-9321-2463925c02ac" data-type="opm.Process" id="j_2158" class="joint-cell joint-type-opm joint-type-opm-process joint-element joint-theme-modern" fill="#ffffff" stroke="none" transform="translate(298,260.5)"><ellipse id="v-14057" fill="#fdffff" magnet="true" stroke-width="2" stroke-dasharray="0" width="10" height="10" stroke="#3BC3FF" rx="76.5" ry="34.5" cx="76.5" cy="34.5" filter="url(#dropShadowv-2-1096745468)"/><svg xmlns="http://www.w3.org/2000/svg" x="70.5" y="3.70001220703125" width="12" height="15" viewBox="0 0 12 15" fill="none" style="cursor: context-menu;">
            <path d="M11.9904 4.03649C11.9923 4.00564 11.9923 3.97472 11.9904 3.94387C11.9904 3.94387 11.9904 3.9298 11.9904 3.92375C11.9836 3.88758 11.9727 3.85244 11.9578 3.81905C11.9578 3.809 11.9578 3.80295 11.9482 3.7949C11.9387 3.78685 11.9214 3.74257 11.9061 3.71841L11.885 3.69223C11.864 3.66175 11.8402 3.63344 11.814 3.6077L8.16037 0.143077C8.13548 0.121178 8.10919 0.101003 8.08178 0.0826837L8.05112 0.0685921C8.03082 0.0562368 8.00966 0.045471 7.98785 0.0363816L7.96869 0.024303L7.89776 0.0021585H7.87666C7.84478 -0.000719501 7.81273 -0.000719501 7.78084 0.0021585H0.575081C0.424857 0.00211554 0.28058 0.0638069 0.173109 0.174039C0.065638 0.284268 0.00350547 0.434287 0 0.592006V14.3961C0 14.5563 0.0605887 14.7099 0.168437 14.8231C0.276286 14.9364 0.422561 15 0.575081 15H11.4249C11.5774 15 11.7237 14.9364 11.8316 14.8231C11.9394 14.7099 12 14.5563 12 14.3961V4.05259C12 4.05259 11.9904 4.04251 11.9904 4.03649ZM8.34826 1.94081L9.9393 3.45267H8.34826V1.94081ZM1.15016 13.7962V1.19595H7.20575V4.05259C7.20575 4.21276 7.26634 4.36637 7.37418 4.47962C7.48205 4.59291 7.62832 4.65654 7.78084 4.65654H10.8479V13.7962H1.15016Z" fill="#5A6F8F"/>
            <line x1="3" y1="5.5" x2="9" y2="5.5" stroke="#5A6F8F"/>
            <line x1="3" y1="9.5" x2="9" y2="9.5" stroke="#5A6F8F"/>
            <line x1="3" y1="11.5" x2="7" y2="11.5" stroke="#5A6F8F"/>
            <line x1="3" y1="7.5" x2="7" y2="7.5" stroke="#5A6F8F"/>
            <path d="M0 0H8L10 2L12 4V15H0V0Z" fill="white" fill-opacity="0.01"/>
            <title>A pattern language for neighborhoods.</title>
            </svg>
      <text id="v-14056" font-size="14" xml:space="preserve" y="0.8em" fill="#000002" font-family="Arial" text-anchor="middle" font-weight="600" transform="matrix(1,0,0,1,76.5,21)"><tspan dy="0" class="v-line">Neighborhood</tspan><tspan dy="1em" x="0" class="v-line">Developing</tspan></text></g><g model-id="595d3350-5d2a-4dd6-a799-5fd5f3ea07aa" data-type="opm.Object" id="j_2159" class="joint-cell joint-type-opm joint-type-opm-object joint-element joint-theme-modern" fill="#ffffff" stroke="none" transform="translate(213,352)"><rect id="v-14061" fill="#fdffff" magnet="true" stroke-width="4" stroke-dasharray="0" width="135" height="60" stroke="#70E483" filter="url(#dropShadowv-2-1096745468)"/><svg xmlns="http://www.w3.org/2000/svg" x="115" y="5" width="12" height="15" viewBox="0 0 12 15" fill="none" style="cursor: context-menu;">
            <path d="M11.9904 4.03649C11.9923 4.00564 11.9923 3.97472 11.9904 3.94387C11.9904 3.94387 11.9904 3.9298 11.9904 3.92375C11.9836 3.88758 11.9727 3.85244 11.9578 3.81905C11.9578 3.809 11.9578 3.80295 11.9482 3.7949C11.9387 3.78685 11.9214 3.74257 11.9061 3.71841L11.885 3.69223C11.864 3.66175 11.8402 3.63344 11.814 3.6077L8.16037 0.143077C8.13548 0.121178 8.10919 0.101003 8.08178 0.0826837L8.05112 0.0685921C8.03082 0.0562368 8.00966 0.045471 7.98785 0.0363816L7.96869 0.024303L7.89776 0.0021585H7.87666C7.84478 -0.000719501 7.81273 -0.000719501 7.78084 0.0021585H0.575081C0.424857 0.00211554 0.28058 0.0638069 0.173109 0.174039C0.065638 0.284268 0.00350547 0.434287 0 0.592006V14.3961C0 14.5563 0.0605887 14.7099 0.168437 14.8231C0.276286 14.9364 0.422561 15 0.575081 15H11.4249C11.5774 15 11.7237 14.9364 11.8316 14.8231C11.9394 14.7099 12 14.5563 12 14.3961V4.05259C12 4.05259 11.9904 4.04251 11.9904 4.03649ZM8.34826 1.94081L9.9393 3.45267H8.34826V1.94081ZM1.15016 13.7962V1.19595H7.20575V4.05259C7.20575 4.21276 7.26634 4.36637 7.37418 4.47962C7.48205 4.59291 7.62832 4.65654 7.78084 4.65654H10.8479V13.7962H1.15016Z" fill="#5A6F8F"/>
            <line x1="3" y1="5.5" x2="9" y2="5.5" stroke="#5A6F8F"/>
            <line x1="3" y1="9.5" x2="9" y2="9.5" stroke="#5A6F8F"/>
            <line x1="3" y1="11.5" x2="7" y2="11.5" stroke="#5A6F8F"/>
            <line x1="3" y1="7.5" x2="7" y2="7.5" stroke="#5A6F8F"/>
            <path d="M0 0H8L10 2L12 4V15H0V0Z" fill="white" fill-opacity="0.01"/>
            <title>All the aspects of a neighborhood that need to function well for the neighborhood as a system to function well.</title>
            </svg>
      <text id="v-14060" font-size="14" xml:space="preserve" y="0.8em" fill="#000002" font-family="Arial" text-anchor="middle" font-weight="600" transform="matrix(1,0,0,1,67.5,9.5)"><tspan dy="0" class="v-line">Neighborhood</tspan><tspan dy="1em" x="0" class="v-line">Developing</tspan><tspan dy="1em" x="0" class="v-line">System</tspan></text></g><g model-id="bdef5d21-8eb4-44c6-b6af-4c8d6468b7cf" data-type="opm.Object" id="j_2160" class="joint-cell joint-type-opm joint-type-opm-object joint-element joint-theme-modern" fill="#ffffff" stroke="none" transform="translate(411,352)"><rect id="v-14005" fill="#fdffff" magnet="true" stroke-width="4" stroke-dasharray="0" width="135" height="60" stroke="#70E483" filter="url(#dropShadowv-2-1096745468)"/><text id="v-14004" font-size="14" xml:space="preserve" y="0.8em" fill="#000002" font-family="Arial" text-anchor="middle" font-weight="600" transform="matrix(1,0,0,1,67.5,16.5)"><tspan dy="0" class="v-line">Neighborhood</tspan><tspan dy="1em" x="0" class="v-line">Wellbeing Set</tspan></text></g><g model-id="9cc694ac-5600-440c-b795-96d9d574b4e0" data-type="opm.Object" id="j_2161" class="joint-cell joint-type-opm joint-type-opm-object joint-element joint-theme-modern" fill="#ffffff" stroke="none" transform="translate(58,228)"><rect id="v-14009" fill="#fdffff" magnet="true" stroke-width="4" stroke-dasharray="10,5" width="135" height="60" stroke="#70E483" filter="url(#dropShadowv-2-1096745468)"/><text id="v-14008" font-size="14" xml:space="preserve" y="0.8em" fill="#000002" font-family="Arial" text-anchor="middle" font-weight="600" transform="matrix(1,0,0,1,67.5,16.5)"><tspan dy="0" class="v-line">Environment</tspan><tspan dy="1em" x="0" class="v-line">Input Set</tspan></text></g><g model-id="31b6cf10-cdcc-48d3-be63-ecadbf34810d" data-type="opm.Object" id="j_2162" class="joint-cell joint-type-opm joint-type-opm-object joint-element joint-theme-modern" fill="#ffffff" stroke="none" transform="translate(564,268)"><rect id="v-14013" fill="#fdffff" magnet="true" stroke-width="4" stroke-dasharray="10,5" width="135" height="60" stroke="#70E483" filter="url(#dropShadowv-2-1096745468)"/><text id="v-14012" font-size="14" xml:space="preserve" y="0.8em" fill="#000002" font-family="Arial" text-anchor="middle" font-weight="600" transform="matrix(1,0,0,1,67.5,16.5)"><tspan dy="0" class="v-line">Neighborhood</tspan><tspan dy="1em" x="0" class="v-line">Output Set</tspan></text></g><g model-id="5bf5fecb-7b8c-420b-a23d-b26b50771f1e" data-type="opm.Object" id="j_2163" class="joint-cell joint-type-opm joint-type-opm-object joint-element joint-theme-modern" fill="#ffffff" stroke="none" transform="translate(61,304)"><rect id="v-14017" fill="#fdffff" magnet="true" stroke-width="2" stroke-dasharray="10,5" width="135" height="60" stroke="#70E483" filter="url(#dropShadowv-2-1096745468)"/><text id="v-14016" font-size="14" xml:space="preserve" y="0.8em" fill="#000002" font-family="Arial" text-anchor="middle" font-weight="600" transform="matrix(1,0,0,1,67.5,9.5)"><tspan dy="0" class="v-line">Environment</tspan><tspan dy="1em" x="0" class="v-line">Requirements</tspan><tspan dy="1em" x="0" class="v-line">Set</tspan></text></g><g model-id="7aff2b57-f3c7-424e-98d3-ea050756a2cb" data-type="opm.Object" id="j_2164" class="joint-cell joint-type-opm joint-type-opm-object joint-element joint-theme-modern" fill="#ffffff" stroke="none" transform="translate(399,152)"><rect id="v-14021" fill="#fdffff" magnet="true" stroke-width="2" stroke-dasharray="0" width="135" height="60" stroke="#70E483" filter="url(#dropShadowv-2-1096745468)"/><text id="v-14020" font-size="14" xml:space="preserve" y="0.8em" fill="#000002" font-family="Arial" text-anchor="middle" font-weight="600" transform="matrix(1,0,0,1,67.5,16.5)"><tspan dy="0" class="v-line">Neighborhood</tspan><tspan dy="1em" x="0" class="v-line">Places Set</tspan></text></g><g model-id="471f1b15-29b3-42f2-8958-2b407f9ef84a" data-type="opm.Object" id="j_2165" class="joint-cell joint-type-opm joint-type-opm-object joint-element joint-theme-modern" fill="#ffffff" stroke="none" transform="translate(220,154)"><rect id="v-14065" fill="#fdffff" magnet="true" stroke-width="2" stroke-dasharray="0" width="135" height="60" stroke="#70E483" filter="url(#dropShadowv-2-1096745468)"/><svg xmlns="http://www.w3.org/2000/svg" x="115" y="5" width="12" height="15" viewBox="0 0 12 15" fill="none" style="cursor: context-menu;">
            <path d="M11.9904 4.03649C11.9923 4.00564 11.9923 3.97472 11.9904 3.94387C11.9904 3.94387 11.9904 3.9298 11.9904 3.92375C11.9836 3.88758 11.9727 3.85244 11.9578 3.81905C11.9578 3.809 11.9578 3.80295 11.9482 3.7949C11.9387 3.78685 11.9214 3.74257 11.9061 3.71841L11.885 3.69223C11.864 3.66175 11.8402 3.63344 11.814 3.6077L8.16037 0.143077C8.13548 0.121178 8.10919 0.101003 8.08178 0.0826837L8.05112 0.0685921C8.03082 0.0562368 8.00966 0.045471 7.98785 0.0363816L7.96869 0.024303L7.89776 0.0021585H7.87666C7.84478 -0.000719501 7.81273 -0.000719501 7.78084 0.0021585H0.575081C0.424857 0.00211554 0.28058 0.0638069 0.173109 0.174039C0.065638 0.284268 0.00350547 0.434287 0 0.592006V14.3961C0 14.5563 0.0605887 14.7099 0.168437 14.8231C0.276286 14.9364 0.422561 15 0.575081 15H11.4249C11.5774 15 11.7237 14.9364 11.8316 14.8231C11.9394 14.7099 12 14.5563 12 14.3961V4.05259C12 4.05259 11.9904 4.04251 11.9904 4.03649ZM8.34826 1.94081L9.9393 3.45267H8.34826V1.94081ZM1.15016 13.7962V1.19595H7.20575V4.05259C7.20575 4.21276 7.26634 4.36637 7.37418 4.47962C7.48205 4.59291 7.62832 4.65654 7.78084 4.65654H10.8479V13.7962H1.15016Z" fill="#5A6F8F"/>
            <line x1="3" y1="5.5" x2="9" y2="5.5" stroke="#5A6F8F"/>
            <line x1="3" y1="9.5" x2="9" y2="9.5" stroke="#5A6F8F"/>
            <line x1="3" y1="11.5" x2="7" y2="11.5" stroke="#5A6F8F"/>
            <line x1="3" y1="7.5" x2="7" y2="7.5" stroke="#5A6F8F"/>
            <path d="M0 0H8L10 2L12 4V15H0V0Z" fill="white" fill-opacity="0.01"/>
            <title>Neighborhood decision making systems</title>
            </svg>
      <text id="v-14064" font-size="14" xml:space="preserve" y="0.8em" fill="#000002" font-family="Arial" text-anchor="middle" font-weight="600" transform="matrix(1,0,0,1,67.5,16.5)"><tspan dy="0" class="v-line">Neighborhood</tspan><tspan dy="1em" x="0" class="v-line">Governance Set</tspan></text></g><g model-id="b52f54a0-d816-4148-bdf7-60597fb3269a" data-type="opm.Object" id="j_2166" class="joint-cell joint-type-opm joint-type-opm-object joint-element joint-theme-modern" fill="#ffffff" stroke="none" transform="translate(305.5,45.5)"><rect id="v-14029" fill="#fdffff" magnet="true" stroke-width="4" stroke-dasharray="0" width="135" height="60" stroke="#70E483" filter="url(#dropShadowv-2-1096745468)"/><text id="v-14028" font-size="14" xml:space="preserve" y="0.8em" fill="#000002" font-family="Arial" text-anchor="middle" font-weight="600" transform="matrix(1,0,0,1,67.5,9.5)"><tspan dy="0" class="v-line">Neighborhood</tspan><tspan dy="1em" x="0" class="v-line">Governance</tspan><tspan dy="1em" x="0" class="v-line">Framework</tspan></text></g><g model-id="7195563f-c523-4c0c-a7c7-f8cc1c38098d" data-type="opm.Object" id="j_2167" class="joint-cell joint-type-opm joint-type-opm-object joint-element joint-theme-modern" fill="#ffffff" stroke="none" transform="translate(307,427)"><rect id="v-14033" fill="#fdffff" magnet="true" stroke-width="4" stroke-dasharray="0" width="135" height="60" stroke="#70E483" filter="url(#dropShadowv-2-1096745468)"/><text id="v-14032" font-size="14" xml:space="preserve" y="0.8em" fill="#000002" font-family="Arial" text-anchor="middle" font-weight="600" transform="matrix(1,0,0,1,67.5,9.5)"><tspan dy="0" class="v-line">Neighborhood</tspan><tspan dy="1em" x="0" class="v-line">Knowledge</tspan><tspan dy="1em" x="0" class="v-line">System Set</tspan></text></g><g model-id="9caa7719-edc3-4164-94f8-a6da29c88ea9" data-type="opm.Link" id="j_2168" class="joint-cell joint-type-opm joint-type-opm-link joint-link joint-theme-modern"><path fill="none" cursor="pointer" stroke="transparent" stroke-linecap="round" joint-selector="wrapper" id="v-14037" stroke-width="15" stroke-linejoin="round" d="M 312.91 352 L 340.99 326.01"/><path fill="none" pointer-events="none" joint-selector="line" id="v-14036" stroke="#586D8C" stroke-width="2" stroke-linejoin="round" stroke-dasharray="0" marker-end="url(#v-2-683989481)" d="M 312.91 352 L 340.99 326.01"/></g><g model-id="c7e08fab-b73f-40d6-9c48-ac33b98e62f9" data-type="opm.Link" id="j_2169" class="joint-cell joint-type-opm joint-type-opm-link joint-link joint-theme-modern"><path fill="none" cursor="pointer" stroke="transparent" stroke-linecap="round" joint-selector="wrapper" id="v-14039" stroke-width="15" stroke-linejoin="round" d="M 442.64 352 L 410.8 325.37"/><path fill="none" pointer-events="none" joint-selector="line" id="v-14038" stroke="#586D8C" stroke-width="2" stroke-linejoin="round" stroke-dasharray="0" marker-end="url(#v-2475244396)" d="M 442.64 352 L 410.8 325.37" marker-start="url(#v-2588103847)"/></g><g model-id="8c2372b6-cc98-4271-9817-a23288ced1b9" data-type="opm.Link" id="j_2170" class="joint-cell joint-type-opm joint-type-opm-link joint-link joint-theme-modern"><path fill="none" cursor="pointer" stroke="transparent" stroke-linecap="round" joint-selector="wrapper" id="v-14041" stroke-width="15" stroke-linejoin="round" d="M 193 268.03 L 301.84 284.2"/><path fill="none" pointer-events="none" joint-selector="line" id="v-14040" stroke="#586D8C" stroke-width="2" stroke-linejoin="round" stroke-dasharray="0" marker-end="url(#v-2475244396)" d="M 193 268.03 L 301.84 284.2"/></g><g model-id="eb41a569-6ff6-444b-b0be-26eb7970ff8e" data-type="opm.Link" id="j_2171" class="joint-cell joint-type-opm joint-type-opm-link joint-link joint-theme-modern"><path fill="none" cursor="pointer" stroke="transparent" stroke-linecap="round" joint-selector="wrapper" id="v-14043" stroke-width="15" stroke-linejoin="round" d="M 450.97 295.89 L 564 297.21"/><path fill="none" pointer-events="none" joint-selector="line" id="v-14042" stroke="#586D8C" stroke-width="2" stroke-linejoin="round" stroke-dasharray="0" marker-end="url(#v-2475244396)" d="M 450.97 295.89 L 564 297.21"/></g><g model-id="0214154c-4f08-4a7e-b9b3-b44294723f64" data-type="opm.Link" id="j_2172" class="joint-cell joint-type-opm joint-type-opm-link joint-link joint-theme-modern"><path fill="none" cursor="pointer" stroke="transparent" stroke-linecap="round" joint-selector="wrapper" id="v-14045" stroke-width="15" stroke-linejoin="round" d="M 196 323.3 L 302.33 306.44"/><path fill="none" pointer-events="none" joint-selector="line" id="v-14044" stroke="#586D8C" stroke-width="2" stroke-linejoin="round" stroke-dasharray="0" marker-end="url(#v-2-683989481)" d="M 196 323.3 L 302.33 306.44"/></g><g model-id="098a2cfe-5e39-4055-bb15-7b33b93bdac2" data-type="opm.Link" id="j_2173" class="joint-cell joint-type-opm joint-type-opm-link joint-link joint-theme-modern"><path fill="none" cursor="pointer" stroke="transparent" stroke-linecap="round" joint-selector="wrapper" id="v-14047" stroke-width="15" stroke-linejoin="round" d="M 442.08 212 L 400.87 262.61"/><path fill="none" pointer-events="none" joint-selector="line" id="v-14046" stroke="#586D8C" stroke-width="2" stroke-linejoin="round" stroke-dasharray="0" marker-end="url(#v-2-683989481)" d="M 442.08 212 L 400.87 262.61"/></g><g model-id="5c032e0d-1ee6-4128-99f7-a38bf937c8e1" data-type="opm.Link" id="j_2174" class="joint-cell joint-type-opm joint-type-opm-link joint-link joint-theme-modern"><path fill="none" cursor="pointer" stroke="transparent" stroke-linecap="round" joint-selector="wrapper" id="v-14049" stroke-width="15" stroke-linejoin="round" d="M 311.01 214 L 349.01 262.47"/><path fill="none" pointer-events="none" joint-selector="line" id="v-14048" stroke="#586D8C" stroke-width="2" stroke-linejoin="round" stroke-dasharray="0" marker-end="url(#v-2-848240405)" d="M 311.01 214 L 349.01 262.47"/></g><g model-id="739f539b-fca9-4a69-b86e-aae41edaf444" data-type="opm.Link" id="j_2175" class="joint-cell joint-type-opm joint-type-opm-link joint-link joint-theme-modern"><path fill="none" cursor="pointer" stroke="transparent" stroke-linecap="round" joint-selector="wrapper" id="v-14051" stroke-width="15" stroke-linejoin="round" d="M 349.7 105.5 L 333 127 L 311.45 154"/><path fill="none" pointer-events="none" joint-selector="line" id="v-14050" stroke="#586D8C" stroke-width="2" stroke-linejoin="round" stroke-dasharray="0" strok-width="2" marker-end="url(#v-2937177351)" d="M 349.7 105.5 L 333 127 L 311.45 154"/></g><g model-id="8685014c-8bc1-4f48-9bc5-6e74f639363d" data-type="opm.Link" id="j_2176" class="joint-cell joint-type-opm joint-type-opm-link joint-link joint-theme-modern"><path fill="none" cursor="pointer" stroke="transparent" stroke-linecap="round" joint-selector="wrapper" id="v-14053" stroke-width="15" stroke-linejoin="round" d="M 373.21 105.5 L 374.26 260.5"/><path fill="none" pointer-events="none" joint-selector="line" id="v-14052" stroke="#586D8C" stroke-width="2" stroke-linejoin="round" stroke-dasharray="0" marker-end="url(#v-2475244396)" d="M 373.21 105.5 L 374.26 260.5" marker-start="url(#v-2588103847)"/></g><g model-id="7060bb04-4c89-47f3-ba7d-39184250075b" data-type="opm.Link" id="j_2177" class="joint-cell joint-type-opm joint-type-opm-link joint-link joint-theme-modern"><path fill="none" cursor="pointer" stroke="transparent" stroke-linecap="round" joint-selector="wrapper" id="v-14055" stroke-width="15" stroke-linejoin="round" d="M 374.5 427 L 374.5 329.5"/><path fill="none" pointer-events="none" joint-selector="line" id="v-14054" stroke="#586D8C" stroke-width="2" stroke-linejoin="round" stroke-dasharray="0" marker-end="url(#v-2-848240405)" d="M 374.5 427 L 374.5 329.5"/></g></g><g joint-selector="front" class="joint-front-layer"/><g joint-selector="tools" class="joint-tools-layer"/></g></svg>